<svg viewBox="0 0 22 23" fill="current" xmlns="http://www.w3.org/2000/svg">
<path fill-rule="evenodd" clip-rule="evenodd" d="M0.34375 2.36009C0.34375 1.88463 0.533728 1.42865 0.871892 1.09246C1.21005 0.756259 1.6687 0.567385 2.14694 0.567385L20.1219 0.567385C20.3589 0.567 20.5937 0.613093 20.8127 0.703025C21.0318 0.792956 21.2308 0.92496 21.3985 1.09148C21.5662 1.258 21.6992 1.45576 21.7899 1.67345C21.8806 1.89113 21.9272 2.12447 21.9271 2.36009L21.9271 20.2306C21.9273 20.4662 21.8808 20.6996 21.7903 20.9174C21.6997 21.1352 21.5668 21.3331 21.3993 21.4998C21.2317 21.6665 21.0327 21.7987 20.8137 21.8888C20.5947 21.979 20.3599 22.0253 20.1229 22.0252L2.14694 22.0252C1.91006 22.0252 1.6755 21.9788 1.45666 21.8887C1.23782 21.7985 1.039 21.6664 0.871545 21.4998C0.70409 21.3332 0.571289 21.1355 0.480728 20.9179C0.390167 20.7003 0.343621 20.467 0.34375 20.2315L0.34375 2.36009ZM8.88682 8.74867H11.8094V10.2078C12.2312 9.369 13.3104 8.61407 14.9321 8.61407C18.0411 8.61407 18.7779 10.2849 18.7779 13.3504V19.0289H15.6316L15.6316 14.0488C15.6316 12.3029 15.2097 11.3178 14.1384 11.3178C12.6521 11.3178 12.0341 12.3799 12.0341 14.0488L12.0341 19.0289L8.88682 19.0289L8.88682 8.74867ZM3.49099 18.8953H6.63823L6.63823 8.61407L3.49099 8.61407L3.49099 18.8943V18.8953ZM7.08853 5.2608C7.09447 5.5287 7.04652 5.79508 6.9475 6.04431C6.84848 6.29355 6.70038 6.5206 6.5119 6.71216C6.32342 6.90372 6.09835 7.05591 5.8499 7.15982C5.60146 7.26373 5.33463 7.31725 5.0651 7.31725C4.79556 7.31725 4.52874 7.26373 4.2803 7.15982C4.03185 7.05591 3.80678 6.90372 3.6183 6.71216C3.42982 6.5206 3.28172 6.29355 3.1827 6.04431C3.08368 5.79508 3.03573 5.5287 3.04166 5.2608C3.05331 4.73494 3.27161 4.23452 3.64981 3.86671C4.02801 3.4989 4.53604 3.29294 5.0651 3.29294C5.59416 3.29294 6.10219 3.4989 6.48039 3.86671C6.85859 4.23452 7.07689 4.73494 7.08853 5.2608Z" fill="current"/>
</svg>
