<?xml version="1.0" standalone="no"?>
<!DOCTYPE svg PUBLIC "-//W3C//DTD SVG 20010904//EN"
 "http://www.w3.org/TR/2001/REC-SVG-20010904/DTD/svg10.dtd">
<svg version="1.0" xmlns="http://www.w3.org/2000/svg"
 width="150.000000pt" height="150.000000pt" viewBox="0 0 150.000000 150.000000"
 preserveAspectRatio="xMidYMid meet">
<metadata>
Created by potrace 1.14, written by Peter Selinger 2001-2017
</metadata>
<g transform="translate(0.000000,150.000000) scale(0.100000,-0.100000)"
fill="#000000" stroke="none">
<path d="M194 1403 c-8 -9 -11 -30 -8 -61 2 -26 7 -78 9 -117 3 -38 8 -92 10
-120 2 -27 6 -81 9 -120 3 -38 8 -101 11 -139 3 -46 -2 -109 -15 -190 -12 -67
-23 -134 -26 -151 -2 -16 -6 -41 -9 -55 -2 -14 -7 -41 -9 -60 -3 -19 -8 -46
-11 -60 -2 -14 -7 -41 -9 -60 -3 -19 -7 -44 -10 -56 -10 -46 -1 -48 224 -49
116 0 214 3 216 7 3 5 10 6 15 3 5 -4 9 -3 9 2 0 11 293 7 316 -4 10 -5 113
-9 227 -9 222 1 232 4 222 51 -10 42 -36 202 -40 235 -2 19 -6 47 -9 63 -6 28
-21 114 -32 182 -8 50 -8 157 0 255 4 41 8 102 11 135 2 33 7 89 10 125 12
136 13 190 1 197 -6 4 -256 8 -555 8 -434 1 -547 -2 -557 -12z"/>
</g>
</svg>
